<svg xmlns="http://www.w3.org/2000/svg" xml:space="preserve" class="MountainBottom" style="enable-background:new 0 0 800 262.1" viewBox="0 0 800 262.1"><path d="M-611.8 99.3s172.9 5.2 229.7 19.9c56.9 14.7 91.3 12.9 106.2 10.8 14.9-2.1 125.9-30.4 166.1-19.3 40.2 11.1 50.8 24.5 68.6 18.9 17.8-5.6 52.6-10.4 75.9-1.3 23.3 9.1 13.8 6.8 24.3.9 10.5-6 28.8-30.5 57-16.3 22 11.1 28.7 43.1 64.2 24.7 33.9-17.6 53.4-16.8 81.6-8.2 28.3 8.6 52 14.1 86.1 15.7 34 1.5 71.7-6.8 133.8 24.9 62.1 31.7 93.5 54.6 125.6 52 32.1-2.6 117.1-18.2 136.1-14.1 19.1 4 58.1 24.5 72.6 26.2 14.5 1.7 10.5 14.2 145.1 12.4 0 0 32.2-3.8 72.2 8.8 40 12.6 78.1 31.1 127.1 30.2 49-.9 136.1-3.4 167.9 5.8l15.5 4.5-15.7 129.2-1950.6-237.5 10.7-88.2z" class="BottomMout"/><path d="M-248.3 202.7S-76.4 181.1-18.1 189c58.4 7.9 92.2.3 106.7-4.5s120.3-55.3 161.6-48.8c41.4 6.4 53.8 20.2 70.6 10.9 16.8-9.3 50.6-20.4 75-13.6 24.4 6.8 14.7 5.7 24.2-2.9s24.1-39.9 54.1-27.9c23.4 9.3 34.5 45.3 67.1 18.3 31-25.8 50.4-28 79.6-22.5 29.2 5.5 53.5 8 87.4 4.4 33.9-3.6 70-19.3 136 7.5S944.6 158.1 976 150c31.4-8.1 113.3-39.7 132.7-38.1 19.4 1.6 61 19 75.6 18.7 14.5-.4 12.4 14.7 145.4-8.8 0 0 31.4-9.6 72.8-1.4s81.7 23.5 130.1 14.6c48.4-8.9 134.3-25.7 167-20.2l16 2.7 2.9 152.2-1964.7 37-2.1-104z" class="BottomMout"/></svg>